<svg xmlns="http://www.w3.org/2000/svg" width="500" height="500" viewBox="0 0 500 500" version="1.1"><path d="M 230 166.999 C 222.808 168.220, 218.359 170.546, 213.044 175.861 C 209.183 179.721, 207.677 182.185, 206.288 186.913 L 204.500 192.997 199.363 192.999 L 194.226 193 193.833 186.049 C 193.511 180.359, 192.992 178.618, 190.970 176.454 C 186.652 171.832, 183.878 171, 172.800 171.004 C 164.355 171.007, 161.924 171.358, 159.304 172.956 C 154.387 175.954, 152.747 179.277, 152.221 187.310 L 151.749 194.500 146.654 197.500 C 143.270 199.492, 140.542 202.153, 138.530 205.421 L 135.500 210.343 135.500 265.421 L 135.500 320.500 138.137 324.500 C 141.864 330.155, 145.728 333.537, 151.500 336.196 L 156.500 338.500 250 338.500 L 343.500 338.500 348.563 335.828 C 353.944 332.988, 359.719 327.258, 362.693 321.810 C 364.371 318.736, 364.500 314.720, 364.500 265.500 C 364.500 215.664, 364.388 212.291, 362.632 209 C 359.137 202.451, 355.884 198.975, 350.688 196.235 L 345.500 193.500 320.868 193.188 L 296.236 192.875 295.626 189.063 C 294.146 179.808, 282.587 168.965, 272.114 167.007 C 265.964 165.857, 236.757 165.852, 230 166.999 M 224.999 182.250 C 220.684 185.195, 218 190.408, 218 195.841 C 218 199.618, 218.238 200.114, 219.750 199.481 C 231.693 194.476, 236.501 193.571, 251 193.597 C 264.521 193.621, 266.099 193.829, 274.376 196.673 L 283.251 199.722 282.690 194.284 C 282.039 187.978, 280.170 184.684, 275.696 181.956 C 272.783 180.180, 270.541 180.007, 250.398 180.004 C 229.117 180, 228.173 180.084, 224.999 182.250 M 167.200 185.200 C 166.540 185.860, 166 187.885, 166 189.700 L 166 193 173 193 L 180 193 180 189.700 C 180 185.255, 178.458 184, 173 184 C 170.470 184, 167.860 184.540, 167.200 185.200 M 156.020 207.752 C 150.635 210.457, 148 215.187, 148 222.148 L 148 228 169.250 227.992 L 190.500 227.985 192.665 224.242 C 193.856 222.184, 197.119 217.953, 199.915 214.840 C 208.082 205.748, 208.585 206, 182.250 206.002 C 162.587 206.003, 159.028 206.240, 156.020 207.752 M 236.265 207.542 C 215.669 213.088, 199.822 229.730, 195.580 250.267 C 193.596 259.873, 193.597 264.123, 195.585 273.792 C 200.518 297.775, 222.135 316.236, 247.082 317.771 C 265.766 318.921, 286.867 308.837, 297.494 293.681 C 307.645 279.205, 310.074 260.111, 304.004 242.501 C 298.411 226.274, 282.681 212.082, 265.296 207.577 C 257.828 205.642, 243.384 205.624, 236.265 207.542 M 296 207.271 C 296 208.043, 297.826 210.594, 300.059 212.941 C 302.291 215.288, 305.730 219.636, 307.700 222.604 L 311.283 228 331.142 228 L 351 228 351 221.904 C 351 215.226, 349.482 211.739, 345.166 208.500 C 342.710 206.658, 340.665 206.475, 319.250 206.184 C 299.808 205.919, 296 206.097, 296 207.271 M 324.011 215.487 C 321.532 218.474, 323.558 220, 330 220 C 334.704 220, 336.204 219.631, 336.694 218.355 C 337.080 217.348, 336.606 216.185, 335.471 215.355 C 332.964 213.522, 325.571 213.607, 324.011 215.487 M 240.594 217.593 C 231.651 219.576, 224.935 223.035, 219.846 228.278 C 209.816 238.614, 205.748 248.175, 205.712 261.500 C 205.675 275.122, 210.320 285.597, 221.017 296.017 C 231.719 306.440, 251.040 309.585, 267.500 303.583 C 274.374 301.076, 276.415 299.738, 282 294.075 C 295.700 280.185, 299.701 263.576, 293.549 246.139 C 290.309 236.956, 280.274 225.176, 272.295 221.191 C 263.602 216.849, 250.605 215.373, 240.594 217.593 M 244.147 230.028 C 234.521 232.025, 224.451 240.505, 221.113 249.426 C 214.921 265.976, 221.616 282.701, 237.581 290.566 C 244.804 294.125, 255.772 294.167, 263.422 290.664 C 270.415 287.463, 277.249 281.130, 279.980 275.320 C 282.622 269.698, 283.159 257.797, 281.092 250.661 C 277.169 237.118, 258.968 226.953, 244.147 230.028 M 244.723 239.921 C 235.997 241.707, 229 251.137, 229 261.110 C 229 277.039, 242.527 287.166, 257.509 282.453 C 270.667 278.315, 276.668 263.754, 270.400 251.176 C 265.817 241.978, 255.902 237.632, 244.723 239.921 M 241.246 247.827 C 238.498 249.572, 235 255.545, 235 258.494 C 235 265.536, 241.172 266.091, 247.632 259.632 C 252.419 254.844, 253.214 251.409, 250.171 248.655 C 248.254 246.920, 243.386 246.468, 241.246 247.827 M 148.229 312.033 C 148.560 315.476, 149.468 317.885, 151.106 319.662 C 155.803 324.755, 157.590 325, 190.090 325 C 216.781 325, 220.102 324.828, 219 323.500 C 218.315 322.675, 217.329 322, 216.808 322 C 215.361 322, 208.063 316.761, 202.336 311.612 L 197.206 307 172.476 307 L 147.746 307 148.229 312.033 M 296.880 312.965 C 293.788 316.056, 289.176 319.690, 286.630 321.041 C 284.083 322.391, 282 323.835, 282 324.248 C 282 324.662, 295.068 325, 311.040 325 C 338.153 325, 340.341 324.867, 344.019 322.990 C 348.674 320.616, 351 316.637, 351 311.050 L 351 307 326.750 307.172 L 302.500 307.345 296.880 312.965" stroke="none" fill="#0d1414" fill-rule="evenodd"/></svg>